<svg width="24" height="24" viewBox="0 0 24 24" fill="none" xmlns="http://www.w3.org/2000/svg">
<path d="M17 8V6C17 4.114 17 3.172 16.414 2.586C15.828 2 14.886 2 13 2H11C9.114 2 8.172 2 7.586 2.586C7 3.172 7 4.114 7 6V8" stroke="#0084FF" stroke-width="2"/>
<path d="M19.7941 11.031C19.7941 10.4919 19.6488 9.96284 19.3736 9.49933C19.0984 9.03582 18.7033 8.65503 18.2301 8.397L13.4361 5.783C12.9955 5.54283 12.5018 5.41699 12.0001 5.41699C11.4983 5.41699 11.0046 5.54283 10.5641 5.783L5.77005 8.397C5.29676 8.65503 4.90174 9.03582 4.62652 9.49933C4.3513 9.96284 4.20605 10.4919 4.20605 11.031V15.969C4.20605 16.5081 4.3513 17.0372 4.62652 17.5007C4.90174 17.9642 5.29676 18.345 5.77005 18.603L10.5641 21.217C11.0046 21.4572 11.4983 21.583 12.0001 21.583C12.5018 21.583 12.9955 21.4572 13.4361 21.217L18.2301 18.603C18.7033 18.345 19.0984 17.9642 19.3736 17.5007C19.6488 17.0372 19.7941 16.5081 19.7941 15.969V15" stroke="#0084FF" stroke-width="2" stroke-linecap="round"/>
<path d="M11.146 11.523C11.526 10.841 11.716 10.5 12 10.5C12.284 10.5 12.474 10.841 12.854 11.523L12.952 11.699C13.06 11.893 13.114 11.989 13.198 12.054C13.283 12.117 13.388 12.141 13.598 12.189L13.788 12.232C14.526 12.399 14.895 12.482 14.983 12.765C15.071 13.047 14.819 13.341 14.316 13.929L14.186 14.081C14.043 14.249 13.971 14.332 13.939 14.436C13.907 14.54 13.918 14.65 13.939 14.874L13.959 15.077C14.035 15.861 14.073 16.254 13.844 16.428C13.614 16.603 13.268 16.444 12.577 16.126L12.399 16.043C12.202 15.953 12.104 15.908 12 15.908C11.896 15.908 11.798 15.953 11.601 16.043L11.423 16.126C10.732 16.444 10.386 16.603 10.156 16.428C9.92604 16.254 9.96504 15.861 10.041 15.077L10.061 14.874C10.082 14.65 10.093 14.539 10.061 14.436C10.029 14.332 9.95704 14.249 9.81404 14.081L9.68404 13.929C9.18104 13.341 8.92904 13.047 9.01704 12.765C9.10504 12.482 9.47404 12.399 10.212 12.232L10.402 12.189C10.612 12.141 10.717 12.117 10.802 12.054C10.886 11.99 10.94 11.893 11.048 11.699L11.146 11.523Z" stroke="#0084FF" stroke-width="2"/>
</svg>
