<svg width="20" height="20" viewBox="0 0 20 20" fill="none" xmlns="http://www.w3.org/2000/svg">
<path d="M16.875 3.75H3.125C2.87636 3.75 2.6379 3.84877 2.46209 4.02459C2.28627 4.2004 2.1875 4.43886 2.1875 4.6875C2.1875 4.93614 2.28627 5.1746 2.46209 5.35041C2.6379 5.52623 2.87636 5.625 3.125 5.625H3.4375V16.25C3.4375 16.6644 3.60212 17.0618 3.89515 17.3549C4.18817 17.6479 4.5856 17.8125 5 17.8125H15C15.4144 17.8125 15.8118 17.6479 16.1049 17.3549C16.3979 17.0618 16.5625 16.6644 16.5625 16.25V5.625H16.875C17.1236 5.625 17.3621 5.52623 17.5379 5.35041C17.7137 5.1746 17.8125 4.93614 17.8125 4.6875C17.8125 4.43886 17.7137 4.2004 17.5379 4.02459C17.3621 3.84877 17.1236 3.75 16.875 3.75ZM14.6875 15.9375H5.3125V5.625H14.6875V15.9375ZM5.9375 1.5625C5.9375 1.31386 6.03627 1.0754 6.21209 0.899587C6.3879 0.723772 6.62636 0.625 6.875 0.625H13.125C13.3736 0.625 13.6121 0.723772 13.7879 0.899587C13.9637 1.0754 14.0625 1.31386 14.0625 1.5625C14.0625 1.81114 13.9637 2.0496 13.7879 2.22541C13.6121 2.40123 13.3736 2.5 13.125 2.5H6.875C6.62636 2.5 6.3879 2.40123 6.21209 2.22541C6.03627 2.0496 5.9375 1.81114 5.9375 1.5625Z" fill="#343434" fill-opacity="0.75"/>
<path d="M3.48438 5.625V5.57812H3.4375H3.125C2.88879 5.57812 2.66226 5.48429 2.49523 5.31727C2.32821 5.15024 2.23438 4.92371 2.23438 4.6875C2.23438 4.45129 2.32821 4.22476 2.49523 4.05773C2.66226 3.89071 2.88879 3.79688 3.125 3.79688H16.875C17.1112 3.79688 17.3377 3.89071 17.5048 4.05773C17.6718 4.22476 17.7656 4.45129 17.7656 4.6875C17.7656 4.92371 17.6718 5.15024 17.5048 5.31727C17.3377 5.48429 17.1112 5.57812 16.875 5.57812H16.5625H16.5156V5.625V16.25C16.5156 16.652 16.3559 17.0375 16.0717 17.3217C15.7875 17.6059 15.402 17.7656 15 17.7656H5C4.59803 17.7656 4.21253 17.6059 3.92829 17.3217C3.64406 17.0375 3.48438 16.652 3.48438 16.25V5.625ZM14.6875 15.9844H14.7344V15.9375V5.625V5.57812H14.6875H5.3125H5.26562V5.625V15.9375V15.9844H5.3125H14.6875ZM5.98438 1.5625C5.98438 1.32629 6.07821 1.09976 6.24523 0.932733C6.41226 0.765708 6.63879 0.671875 6.875 0.671875H13.125C13.3612 0.671875 13.5877 0.765708 13.7548 0.932733C13.9218 1.09976 14.0156 1.32629 14.0156 1.5625C14.0156 1.79871 13.9218 2.02524 13.7548 2.19227C13.5877 2.35929 13.3612 2.45312 13.125 2.45312H6.875C6.63879 2.45312 6.41226 2.35929 6.24523 2.19227C6.07821 2.02524 5.98438 1.79871 5.98438 1.5625Z" stroke="#343434" stroke-opacity="0.75" stroke-width="0.09375"/>
</svg>
