<?xml version="1.0" encoding="UTF-8"?>
<!DOCTYPE svg PUBLIC "-//W3C//DTD SVG 1.1//EN" "http://www.w3.org/Graphics/SVG/1.1/DTD/svg11.dtd">
<!-- Creator: CorelDRAW 2021 (64-Bit) -->
<svg xmlns="http://www.w3.org/2000/svg" xml:space="preserve" width="1080px" height="1250px" version="1.1" style="shape-rendering:geometricPrecision; text-rendering:geometricPrecision; image-rendering:optimizeQuality; fill-rule:evenodd; clip-rule:evenodd"
viewBox="0 0 1073.24 1242.18"
 xmlns:xlink="http://www.w3.org/1999/xlink"
 xmlns:xodm="http://www.corel.com/coreldraw/odm/2003">
 <defs>
  <style type="text/css">
   <![CDATA[
    .fil1 {fill:black}
    .fil2 {fill:black}
    .fil3 {fill:#00CCFF}
    .fil0 {fill:white}
   ]]>
  </style>
 </defs>
 <g id="Слой_x0020_1">
  <metadata id="CorelCorpID_0Corel-Layer"/>
  <path class="fil0" d="M134.87 1138.49c70.36,0.21 129.25,-29.75 182.64,-60.87 119.55,-69.7 75.81,-89.81 161.54,-76.82 154.04,23.36 288.42,-39.54 376.18,-121.3 190.04,-177.05 194.16,-535.61 -68.93,-712.28 -205.61,-138.07 -526.44,-80.81 -652.92,205.05 -80.8,182.65 -19.62,375.88 90.71,494.66 81.43,87.66 -82.58,261.47 -89.22,271.56z"/>
  <path class="fil1" d="M5.06 1161.21c-8.08,17.42 -5.27,27.91 0,35.16 49.86,66.26 153.29,47.45 222.11,25 169.53,-55.31 191.52,-130.32 237.14,-128.39 73.96,3.13 88.04,20.59 199.34,-6.2 430.31,-103.6 548.6,-676.77 224.61,-955 -275.42,-236.52 -645.1,-132.51 -798.75,136.33 -108.43,189.73 -96.76,436.72 38.31,612.29 56.72,73.73 27.77,105.4 -57.5,188.81 -34.7,38.01 -36.74,38.91 -65.26,92zm129.81 -22.72c70.36,0.21 129.25,-29.75 182.64,-60.87 119.55,-69.7 75.81,-89.82 161.54,-76.82 154.04,23.36 288.42,-39.54 376.18,-121.3 190.04,-177.05 194.16,-535.61 -68.93,-712.28 -205.61,-138.07 -526.44,-80.81 -652.92,205.05 -80.8,182.65 -19.62,375.88 90.71,494.66 81.43,87.66 -82.58,261.47 -89.22,271.56z"/>
  <rect class="fil2" x="215.18" y="577.47" width="165.35" height="194.45"/>
  <rect class="fil3" x="453.38" y="243.62" width="165.35" height="528.3"/>
  <rect class="fil2" x="691.58" y="383.01" width="165.35" height="388.91"/>
 </g>
</svg>
