<svg width="42" height="43" viewBox="0 0 42 43" fill="none" xmlns="http://www.w3.org/2000/svg">
<g filter="url(#filter0_dd_68_2272)">
<path d="M19 11C19 10.4477 19.4477 10 20 10H22C22.5523 10 23 10.4477 23 11V19C23 19.5523 22.5523 20 22 20H20C19.4477 20 19 19.5523 19 19V11Z" stroke="#47BCE6" stroke-width="1.5" stroke-linecap="round" stroke-linejoin="round"/>
<path d="M13 15C13 14.4477 13.4477 14 14 14H16C16.5523 14 17 14.4477 17 15V19C17 19.5523 16.5523 20 16 20H14C13.4477 20 13 19.5523 13 19V15Z" stroke="#47BCE6" stroke-width="1.5" stroke-linecap="round" stroke-linejoin="round"/>
<path d="M25 7C25 6.44772 25.4477 6 26 6H28C28.5523 6 29 6.44772 29 7V19C29 19.5523 28.5523 20 28 20H26C25.4477 20 25 19.5523 25 19V7Z" stroke="#47BCE6" stroke-width="1.5" stroke-linecap="round" stroke-linejoin="round"/>
</g>
<defs>
<filter id="filter0_dd_68_2272" x="-3" y="-2" width="48" height="48" filterUnits="userSpaceOnUse" color-interpolation-filters="sRGB">
<feFlood flood-opacity="0" result="BackgroundImageFix"/>
<feColorMatrix in="SourceAlpha" type="matrix" values="0 0 0 0 0 0 0 0 0 0 0 0 0 0 0 0 0 0 127 0" result="hardAlpha"/>
<feMorphology radius="4" operator="erode" in="SourceAlpha" result="effect1_dropShadow_68_2272"/>
<feOffset dy="4"/>
<feGaussianBlur stdDeviation="3"/>
<feColorMatrix type="matrix" values="0 0 0 0 0 0 0 0 0 0.517647 0 0 0 0 1 0 0 0 0.15 0"/>
<feBlend mode="normal" in2="BackgroundImageFix" result="effect1_dropShadow_68_2272"/>
<feColorMatrix in="SourceAlpha" type="matrix" values="0 0 0 0 0 0 0 0 0 0 0 0 0 0 0 0 0 0 127 0" result="hardAlpha"/>
<feMorphology radius="3" operator="erode" in="SourceAlpha" result="effect2_dropShadow_68_2272"/>
<feOffset dy="10"/>
<feGaussianBlur stdDeviation="7.5"/>
<feColorMatrix type="matrix" values="0 0 0 0 0.244854 0 0 0 0 0.565115 0 0 0 0 0.941074 0 0 0 0.15 0"/>
<feBlend mode="normal" in2="effect1_dropShadow_68_2272" result="effect2_dropShadow_68_2272"/>
<feBlend mode="normal" in="SourceGraphic" in2="effect2_dropShadow_68_2272" result="shape"/>
</filter>
</defs>
</svg>
