<svg width="24" height="24" viewBox="0 0 24 24" fill="none" xmlns="http://www.w3.org/2000/svg">
<path fill-rule="evenodd" clip-rule="evenodd" d="M4.5 10.3333C4.5 6.1912 7.85786 2.83333 12 2.83333C16.1421 2.83333 19.5 6.1912 19.5 10.3333C19.5 12.9326 18.0468 14.8046 16.5595 16.3537C16.2006 16.7275 15.8304 17.0915 15.4726 17.4434L15.4261 17.4891C15.0506 17.8584 14.6895 18.2146 14.3493 18.5731C13.6654 19.2939 13.107 19.9827 12.7454 20.706C12.6042 20.9883 12.3156 21.1667 12 21.1667C11.6844 21.1667 11.3958 20.9883 11.2546 20.706C10.893 19.9827 10.3346 19.2939 9.65071 18.5731C9.31051 18.2146 8.94936 17.8584 8.57385 17.4891L8.52733 17.4433C8.16952 17.0914 7.79942 16.7275 7.44054 16.3537C5.95322 14.8046 4.5 12.9326 4.5 10.3333ZM14.5 9.91667C14.5 11.2974 13.3807 12.4167 12 12.4167C10.6193 12.4167 9.5 11.2974 9.5 9.91667C9.5 8.53595 10.6193 7.41667 12 7.41667C13.3807 7.41667 14.5 8.53595 14.5 9.91667Z" fill="#343434" fill-opacity="0.5"/>
</svg>
