<svg width="24" height="24" viewBox="0 0 24 24" fill="none" xmlns="http://www.w3.org/2000/svg">
<path fill-rule="evenodd" clip-rule="evenodd" d="M7 8.66667C7 5.90525 9.23858 3.66667 12 3.66667C14.7614 3.66667 17 5.90525 17 8.66667V9.62528C17.2355 9.67688 17.4615 9.75203 17.68 9.86332C18.3072 10.1829 18.8171 10.6928 19.1367 11.32C19.3428 11.7245 19.4249 12.1551 19.4632 12.6235C19.5 13.0745 19.5 13.6281 19.5 14.2989V15.5344C19.5 16.2052 19.5 16.7589 19.4632 17.2099C19.4249 17.6783 19.3428 18.1089 19.1367 18.5133C18.8171 19.1405 18.3072 19.6505 17.68 19.97C17.2755 20.1761 16.8449 20.2582 16.3765 20.2965C15.9255 20.3334 15.3719 20.3334 14.7011 20.3333H9.29894C8.62812 20.3334 8.07448 20.3334 7.62348 20.2965C7.15507 20.2582 6.72448 20.1761 6.32003 19.97C5.69283 19.6505 5.18289 19.1405 4.86331 18.5133C4.65724 18.1089 4.5751 17.6783 4.53683 17.2099C4.49998 16.7589 4.49999 16.2052 4.5 15.5344V14.2989C4.49999 13.6281 4.49998 13.0745 4.53683 12.6235C4.5751 12.1551 4.65724 11.7245 4.86331 11.32C5.18289 10.6928 5.69283 10.1829 6.32003 9.86332C6.53845 9.75203 6.76449 9.67688 7 9.62528V8.66667ZM15.3333 8.66667V9.50136H8.66667V8.66667C8.66667 6.82572 10.1591 5.33334 12 5.33334C13.8409 5.33334 15.3333 6.82572 15.3333 8.66667ZM12.8333 14.0833C12.8333 13.6231 12.4602 13.25 12 13.25C11.5398 13.25 11.1667 13.6231 11.1667 14.0833V15.75C11.1667 16.2102 11.5398 16.5833 12 16.5833C12.4602 16.5833 12.8333 16.2102 12.8333 15.75V14.0833Z" fill="#6C7275" fill-opacity="0.5"/>
</svg>
