<svg width="24" height="24" viewBox="0 0 24 24" fill="none" xmlns="http://www.w3.org/2000/svg">
<path d="M3.77785 8.81786C3.52791 8.63933 3.40294 8.55007 3.29398 8.53848C3.13105 8.52114 2.96775 8.60518 2.88714 8.74784C2.83325 8.84324 2.83325 8.99513 2.83325 9.29891V14.7011C2.83324 15.3719 2.83323 15.9255 2.87008 16.3765C2.90835 16.8449 2.99049 17.2755 3.19656 17.68C3.51614 18.3072 4.02608 18.8171 4.65328 19.1367C5.05773 19.3428 5.48832 19.4249 5.95673 19.4632C6.40772 19.5 6.96135 19.5 7.63215 19.5H16.3677C17.0385 19.5 17.5921 19.5 18.0431 19.4632C18.5115 19.4249 18.9421 19.3428 19.3466 19.1367C19.9738 18.8171 20.4837 18.3072 20.8033 17.68C21.0093 17.2755 21.0915 16.8449 21.1298 16.3765C21.1666 15.9255 21.1666 15.3719 21.1666 14.7011V9.2989C21.1666 9.15001 21.1666 9.07557 21.1529 9.02358C21.0913 8.78856 20.8358 8.65468 20.6074 8.73776C20.5569 8.75614 20.495 8.79905 20.371 8.88487L13.9192 13.3516C13.4618 13.6693 13.0601 13.9482 12.6038 14.0588C12.2047 14.1556 11.7879 14.1525 11.3903 14.0499C10.9357 13.9326 10.5382 13.6478 10.0855 13.3234L3.77785 8.81786Z" fill="#6C7275" fill-opacity="0.5"/>
<path d="M20.4439 6.80727C20.5978 6.70077 20.6747 6.64752 20.7219 6.56187C20.7586 6.49536 20.7796 6.39003 20.7712 6.31454C20.7604 6.21733 20.7191 6.15314 20.6364 6.02478C20.3199 5.53304 19.8643 5.12713 19.3466 4.86331C18.9421 4.65724 18.5115 4.5751 18.0431 4.53683C17.5921 4.49998 17.0385 4.49999 16.3677 4.5H7.63217C6.96137 4.49999 6.40772 4.49998 5.95673 4.53683C5.48832 4.5751 5.05773 4.65724 4.65328 4.86331C4.18742 5.10068 3.78475 5.44384 3.47856 5.86112C3.38222 5.99241 3.33406 6.05805 3.31819 6.15767C3.30578 6.23558 3.32311 6.34381 3.35922 6.41395C3.4054 6.50364 3.4855 6.56085 3.64569 6.67527L10.9583 11.8986C11.5643 12.3314 11.6929 12.4067 11.8067 12.4361C11.9392 12.4703 12.0782 12.4713 12.2112 12.4391C12.3254 12.4114 12.4551 12.338 13.0674 11.9141L20.4439 6.80727Z" fill="#6C7275" fill-opacity="0.5"/>
</svg>
