<svg width="38" height="38" viewBox="0 0 38 38" fill="none" xmlns="http://www.w3.org/2000/svg">
<rect width="38" height="38" rx="12" fill="#F0AC3E"/>
<path d="M24 22V26M26 24H22M23 17H25C26.1046 17 27 16.1046 27 15V13C27 11.8954 26.1046 11 25 11H23C21.8954 11 21 11.8954 21 13V15C21 16.1046 21.8954 17 23 17ZM13 27H15C16.1046 27 17 26.1046 17 25V23C17 21.8954 16.1046 21 15 21H13C11.8954 21 11 21.8954 11 23V25C11 26.1046 11.8954 27 13 27ZM13 17H15C16.1046 17 17 16.1046 17 15V13C17 11.8954 16.1046 11 15 11H13C11.8954 11 11 11.8954 11 13V15C11 16.1046 11.8954 17 13 17Z" stroke="white" stroke-width="2" stroke-linecap="round" stroke-linejoin="round"/>
</svg>
