<svg width="24" height="24" viewBox="0 0 24 24" fill="none" xmlns="http://www.w3.org/2000/svg">
<path fill-rule="evenodd" clip-rule="evenodd" d="M3.89401 18.095C5.98222 15.8802 8.83804 14.5 12.0003 14.5C15.1627 14.5 18.0185 15.8802 20.1067 18.095C20.3348 18.337 20.3973 18.6915 20.2655 18.9969C20.1337 19.3022 19.8329 19.5 19.5003 19.5H4.50034C4.16775 19.5 3.867 19.3022 3.73522 18.9969C3.60343 18.6915 3.66585 18.337 3.89401 18.095Z" fill="#343434" fill-opacity="0.5"/>
<path fill-rule="evenodd" clip-rule="evenodd" d="M7.41701 8.25C7.41701 5.71869 9.46904 3.66666 12.0003 3.66666C14.5317 3.66666 16.5837 5.71869 16.5837 8.25C16.5837 10.7813 14.5317 12.8333 12.0003 12.8333C9.46904 12.8333 7.41701 10.7813 7.41701 8.25Z" fill="#343434" fill-opacity="0.5"/>
</svg>
