<svg width="16" height="16" viewBox="0 0 16 16" fill="none" xmlns="http://www.w3.org/2000/svg">
<path fill-rule="evenodd" clip-rule="evenodd" d="M11.892 1.33334H4.10731C3.75589 1.33333 3.4527 1.33332 3.20299 1.35372C2.93943 1.37526 2.67728 1.4228 2.42503 1.55133C2.0487 1.74308 1.74274 2.04904 1.551 2.42536C1.42247 2.67762 1.37492 2.93976 1.35339 3.20333C1.33299 3.45304 1.333 3.7562 1.33301 4.10762V11.8924C1.333 12.2438 1.33299 12.547 1.35339 12.7967C1.37492 13.0603 1.42247 13.3224 1.551 13.5747C1.74274 13.951 2.0487 14.2569 2.42503 14.4487C2.67728 14.5772 2.93943 14.6248 3.20299 14.6463C3.4527 14.6667 3.75587 14.6667 4.1073 14.6667H11.8921C12.2435 14.6667 12.5466 14.6667 12.7964 14.6463C13.0599 14.6248 13.3221 14.5772 13.5743 14.4487C13.9506 14.2569 14.2566 13.951 14.4484 13.5747C14.5769 13.3224 14.6244 13.0603 14.646 12.7967C14.6664 12.547 14.6664 12.2438 14.6663 11.8924V4.10763C14.6664 3.75621 14.6664 3.45304 14.646 3.20333C14.6244 2.93976 14.5769 2.67762 14.4484 2.42536C14.2566 2.04904 13.9506 1.74308 13.5743 1.55133C13.3221 1.4228 13.0599 1.37526 12.7964 1.35372C12.5467 1.33332 12.2435 1.33333 11.892 1.33334ZM9.15405 8.79647L9.76568 10.6314C9.84468 10.8684 9.88418 10.9869 9.8605 11.0812C9.83976 11.1638 9.78823 11.2353 9.71645 11.281C9.63445 11.3333 9.50954 11.3333 9.25972 11.3333H6.73964C6.48981 11.3333 6.3649 11.3333 6.2829 11.281C6.21113 11.2353 6.15959 11.1638 6.13885 11.0812C6.11517 10.9869 6.15467 10.8684 6.23367 10.6314L6.8453 8.79647C6.89233 8.65539 6.91585 8.58483 6.91462 8.52712C6.91334 8.46643 6.90522 8.43461 6.87727 8.38072C6.8507 8.32948 6.77965 8.26337 6.63755 8.13114C6.24513 7.76598 5.99968 7.24499 5.99968 6.66668C5.99968 5.56211 6.89511 4.66668 7.99968 4.66668C9.10425 4.66668 9.99968 5.56211 9.99968 6.66668C9.99968 7.24499 9.75422 7.76598 9.3618 8.13114C9.2197 8.26337 9.14865 8.32948 9.12208 8.38072C9.09413 8.43461 9.08601 8.46643 9.08473 8.52712C9.0835 8.58483 9.10702 8.65539 9.15405 8.79647Z" fill="#343434" fill-opacity="0.75"/>
</svg>
