<svg width="16" height="16" viewBox="0 0 16 16" fill="none" xmlns="http://www.w3.org/2000/svg">
<path fill-rule="evenodd" clip-rule="evenodd" d="M5.73677 13.5588C5.98041 13.2828 6.4017 13.2565 6.67775 13.5002C7.03072 13.8117 7.4928 14 8.00048 14C8.50815 14 8.97023 13.8117 9.3232 13.5002C9.59925 13.2565 10.0205 13.2828 10.2642 13.5588C10.5078 13.8349 10.4816 14.2562 10.2055 14.4998C9.61831 15.0181 8.84539 15.3333 8.00048 15.3333C7.15556 15.3333 6.38264 15.0181 5.79544 14.4998C5.51939 14.2562 5.49312 13.8349 5.73677 13.5588Z" fill="#343434" fill-opacity="0.75"/>
<path fill-rule="evenodd" clip-rule="evenodd" d="M4.70064 2.03351C5.57581 1.15834 6.7628 0.666672 8.00048 0.666672C9.23815 0.666672 10.4251 1.15834 11.3003 2.03351C12.1755 2.90868 12.6671 4.09566 12.6671 5.33334C12.6671 7.27512 13.1551 8.56258 13.6667 9.38474L13.6747 9.39746C13.9128 9.78025 14.1011 10.0829 14.2281 10.3031C14.2917 10.4135 14.3497 10.5198 14.3926 10.6143C14.414 10.6615 14.4379 10.7193 14.4567 10.7822C14.4722 10.8343 14.5018 10.9458 14.4907 11.0815C14.4832 11.1727 14.4647 11.3286 14.3752 11.4895C14.2858 11.6505 14.1633 11.7486 14.0898 11.8032C13.9229 11.9269 13.7313 11.9552 13.6674 11.9647L13.6644 11.9651C13.5661 11.9797 13.4546 11.9869 13.3421 11.9913C13.1186 12 12.8092 12 12.4244 12H3.57657C3.19176 12 2.88233 12 2.65883 11.9913C2.54632 11.9869 2.43481 11.9797 2.33653 11.9651L2.33358 11.9647C2.26963 11.9552 2.07801 11.9269 1.91115 11.8032C1.83765 11.7486 1.71517 11.6505 1.62573 11.4895C1.5363 11.3286 1.5177 11.1727 1.51024 11.0815C1.49915 10.9458 1.52875 10.8343 1.54428 10.7822C1.56301 10.7193 1.58697 10.6615 1.60839 10.6143C1.6513 10.5198 1.70926 10.4135 1.77287 10.3031C1.89982 10.0828 2.08814 9.7802 2.32636 9.39737L2.33422 9.38474C2.84581 8.56258 3.33381 7.27512 3.33381 5.33334C3.33381 4.09566 3.82547 2.90868 4.70064 2.03351Z" fill="#343434" fill-opacity="0.75"/>
</svg>
