<svg width="18" height="16" viewBox="0 0 18 16" fill="none" xmlns="http://www.w3.org/2000/svg">
<path d="M1.28516 3.71372C1.28516 2.7669 2.05271 1.99934 2.99954 1.99934H15.0002C15.947 1.99934 16.7146 2.7669 16.7146 3.71372V12.2856C16.7146 13.2324 15.947 14 15.0002 14H2.99953C2.05271 14 1.28516 13.2324 1.28516 12.2856V3.71372Z" fill="#676767"/>
<path fill-rule="evenodd" clip-rule="evenodd" d="M1.28516 4.57091L8.04889 9.08007C8.62475 9.46398 9.37497 9.46398 9.95083 9.08007L16.7146 4.57091" fill="#676767"/>
<path d="M1.28516 4.57091L8.04889 9.08007C8.62475 9.46398 9.37497 9.46398 9.95083 9.08007L16.7146 4.57091M2.99953 14H15.0002C15.947 14 16.7146 13.2324 16.7146 12.2856V3.71372C16.7146 2.7669 15.947 1.99934 15.0002 1.99934H2.99954C2.05271 1.99934 1.28516 2.7669 1.28516 3.71372V12.2856C1.28516 13.2324 2.05271 14 2.99953 14Z" stroke="white" stroke-width="1.71438" stroke-linecap="round" stroke-linejoin="round"/>
</svg>
