<svg width="16" height="16" viewBox="0 0 16 16" fill="none" xmlns="http://www.w3.org/2000/svg">
<path fill-rule="evenodd" clip-rule="evenodd" d="M2.27866 12.2021C3.59397 10.4613 5.66582 9.33334 7.9999 9.33334C10.334 9.33334 12.4058 10.4613 13.7211 12.2021C13.7271 12.21 13.7331 12.2178 13.7391 12.2258C13.8521 12.3753 13.9734 12.5357 14.0601 12.6904C14.165 12.8776 14.2427 13.0943 14.2379 13.3577C14.234 13.5695 14.1698 13.7677 14.0919 13.9243C14.014 14.0808 13.8945 14.2515 13.7279 14.3823C13.5057 14.5566 13.2637 14.6184 13.0488 14.6442C12.8602 14.6668 12.6368 14.6667 12.4121 14.6667C12.402 14.6667 12.3919 14.6667 12.3817 14.6667H3.61806C3.60793 14.6667 3.59781 14.6667 3.58768 14.6667C3.36302 14.6667 3.13956 14.6668 2.951 14.6442C2.73607 14.6184 2.49413 14.5566 2.27192 14.3823C2.10529 14.2515 1.9858 14.0808 1.90788 13.9243C1.82997 13.7677 1.7658 13.5695 1.76193 13.3577C1.75711 13.0943 1.83485 12.8776 1.93974 12.6904C2.0264 12.5357 2.14766 12.3753 2.26075 12.2258C2.26675 12.2178 2.27272 12.2099 2.27866 12.2021Z" fill="#343434" fill-opacity="0.75"/>
<path fill-rule="evenodd" clip-rule="evenodd" d="M4.33324 5.00001C4.33324 2.97497 5.97486 1.33334 7.9999 1.33334C10.0249 1.33334 11.6666 2.97497 11.6666 5.00001C11.6666 7.02505 10.0249 8.66668 7.9999 8.66668C5.97486 8.66668 4.33324 7.02505 4.33324 5.00001Z" fill="#343434" fill-opacity="0.75"/>
</svg>
