<svg width="24" height="24" viewBox="0 0 24 24" fill="none" xmlns="http://www.w3.org/2000/svg">
<path d="M15.7441 16.4211C15.5876 16.7477 15.5 17.1136 15.5 17.5C15.5 18.8807 16.6193 20 18 20C19.3807 20 20.5 18.8807 20.5 17.5C20.5 16.1193 19.3807 15 18 15C17.0057 15 16.1469 15.5805 15.7441 16.4211ZM15.7441 16.4211L8.75586 13.0789M15.7441 7.57889C16.1469 8.41949 17.0057 9 18 9C19.3807 9 20.5 7.88071 20.5 6.5C20.5 5.11929 19.3807 4 18 4C16.6193 4 15.5 5.11929 15.5 6.5C15.5 6.88637 15.5876 7.25226 15.7441 7.57889ZM15.7441 7.57889L8.75586 10.9211M8.75586 10.9211C8.35311 10.0805 7.49435 9.5 6.5 9.5C5.11929 9.5 4 10.6193 4 12C4 13.3807 5.11929 14.5 6.5 14.5C7.49435 14.5 8.35311 13.9195 8.75586 13.0789M8.75586 10.9211C8.91235 11.2477 9 11.6136 9 12C9 12.3864 8.91235 12.7523 8.75586 13.0789" stroke="#343434" stroke-opacity="0.75" stroke-width="2" stroke-linecap="round" stroke-linejoin="round"/>
</svg>
